<svg width="24" height="21" viewBox="0 0 24 21" fill="none" xmlns="http://www.w3.org/2000/svg">
<path d="M23.1257 5.16951C23.0184 5.01442 22.8751 4.88766 22.708 4.80009C22.541 4.71252 22.3553 4.66674 22.1667 4.66667H6.22183L4.8755 1.43501C4.69897 1.00943 4.40005 0.645858 4.01663 0.390384C3.63321 0.134911 3.18257 -0.00095788 2.72183 5.08345e-06H0V2.33334H2.72183L8.2565 15.6158C8.34515 15.8284 8.49471 16.0099 8.68633 16.1376C8.87795 16.2652 9.10307 16.3334 9.33333 16.3333H18.6667C19.1532 16.3333 19.5883 16.0312 19.7598 15.5773L23.2598 6.24401C23.326 6.0674 23.3483 5.87738 23.325 5.69025C23.3016 5.50311 23.2332 5.32443 23.1257 5.16951V5.16951ZM17.8582 14H10.1115L7.19483 7H20.4832L17.8582 14Z" fill="black"/>
<path d="M9.91675 21C10.8832 21 11.6667 20.2165 11.6667 19.25C11.6667 18.2835 10.8832 17.5 9.91675 17.5C8.95025 17.5 8.16675 18.2835 8.16675 19.25C8.16675 20.2165 8.95025 21 9.91675 21Z" fill="black"/>
<path d="M18.0835 21C19.05 21 19.8335 20.2165 19.8335 19.25C19.8335 18.2835 19.05 17.5 18.0835 17.5C17.117 17.5 16.3335 18.2835 16.3335 19.25C16.3335 20.2165 17.117 21 18.0835 21Z" fill="black"/>
</svg>
