<svg width="24" height="22" viewBox="0 0 24 22" fill="none" xmlns="http://www.w3.org/2000/svg">
<path d="M23.0508 4.33674C22.6843 3.48809 22.1558 2.71905 21.4949 2.07268C20.8336 1.42437 20.0538 0.909174 19.198 0.555097C18.3107 0.186485 17.3589 -0.00219238 16.398 1.92196e-05C15.05 1.92196e-05 13.7348 0.36916 12.5918 1.06643C12.3184 1.23322 12.0586 1.41643 11.8125 1.61603C11.5664 1.41643 11.3066 1.23322 11.0332 1.06643C9.89023 0.36916 8.575 1.92196e-05 7.22695 1.92196e-05C6.25625 1.92196e-05 5.31562 0.185957 4.42695 0.555097C3.56836 0.910566 2.79453 1.42189 2.13008 2.07268C1.46835 2.71832 0.939744 3.48754 0.574219 4.33674C0.194141 5.21994 0 6.15783 0 7.12307C0 8.03361 0.185938 8.98244 0.555078 9.94768C0.864063 10.7543 1.30703 11.591 1.87305 12.436C2.76992 13.7731 4.00312 15.1676 5.53437 16.5813C8.07187 18.9246 10.5848 20.5434 10.6914 20.609L11.3395 21.0246C11.6266 21.2078 11.9957 21.2078 12.2828 21.0246L12.9309 20.609C13.0375 20.5406 15.5477 18.9246 18.0879 16.5813C19.6191 15.1676 20.8523 13.7731 21.7492 12.436C22.3152 11.591 22.7609 10.7543 23.0672 9.94768C23.4363 8.98244 23.6223 8.03361 23.6223 7.12307C23.625 6.15783 23.4309 5.21994 23.0508 4.33674V4.33674Z" fill="black"/>
</svg>
