<svg width="21" height="28" viewBox="0 0 21 28" fill="none" xmlns="http://www.w3.org/2000/svg">
<path fill-rule="evenodd" clip-rule="evenodd" d="M10.4999 7.71756C12.9271 5.22381 18.9944 9.59006 10.4999 15.2023C2.0054 9.59006 8.07265 5.22556 10.4999 7.72106V7.71756Z" fill="black"/>
<path d="M0 3.5C0 2.57174 0.368749 1.6815 1.02513 1.02513C1.6815 0.368749 2.57174 0 3.5 0L17.5 0C18.4283 0 19.3185 0.368749 19.9749 1.02513C20.6313 1.6815 21 2.57174 21 3.5V27.125C20.9999 27.2833 20.9569 27.4386 20.8756 27.5743C20.7942 27.7101 20.6775 27.8212 20.538 27.8959C20.3985 27.9707 20.2413 28.0061 20.0832 27.9985C19.9251 27.991 19.772 27.9407 19.6402 27.853L10.5 22.9267L1.35975 27.853C1.22798 27.9407 1.0749 27.991 0.91681 27.9985C0.758717 28.0061 0.601533 27.9707 0.461999 27.8959C0.322465 27.8212 0.205807 27.7101 0.12445 27.5743C0.0430921 27.4386 8.17607e-05 27.2833 0 27.125V3.5ZM3.5 1.75C3.03587 1.75 2.59075 1.93437 2.26256 2.26256C1.93437 2.59075 1.75 3.03587 1.75 3.5V25.4905L10.0153 21.147C10.1589 21.0514 10.3275 21.0005 10.5 21.0005C10.6725 21.0005 10.8411 21.0514 10.9848 21.147L19.25 25.4905V3.5C19.25 3.03587 19.0656 2.59075 18.7374 2.26256C18.4092 1.93437 17.9641 1.75 17.5 1.75H3.5Z" fill="black"/>
</svg>
